<?xml version="1.0" standalone="no"?>
<svg viewBox="0 0 200 200" xmlns="http://www.w3.org/2000/svg">
  <path fill="#9EF0F0" d="M36.9,-52.7C47.5,-50.6,55.4,-39.8,62.4,-27.6C69.5,-15.4,75.6,-1.8,71.9,9C68.3,19.8,54.9,27.9,43.8,34.6C32.7,41.3,24,46.6,12.8,54.9C1.7,63.3,-11.8,74.8,-26,76.3C-40.3,77.8,-55.2,69.3,-60.3,56.3C-65.5,43.2,-60.7,25.6,-63.7,8.8C-66.6,-8,-77.2,-24,-75.1,-36.7C-73.1,-49.4,-58.4,-58.7,-43.8,-58.9C-29.1,-59.2,-14.6,-50.4,-0.7,-49.3C13.2,-48.2,26.3,-54.9,36.9,-52.7Z" transform="translate(100 100)" />
</svg>
